<svg width="143" height="25" xmlns="http://www.w3.org/2000/svg">
  <g fill="#FFF" fill-rule="evenodd">
    <path d="m15.512 0 8.76 25H13.584l-1.216-3.68H4.488L3.272 25H0L8.76 0h6.752Zm-3.552 17.28 2.88-8.64-2.88 8.64Z"/>
    <path d="M25.344 0v25h-2.928V0h2.928Z"/>
    <path d="M35.616 0v25h-2.928V0h2.928Z"/>
    <path d="M45.888 0v25h-2.928V0h2.928Z"/>
    <path d="M56.16 0v25h-2.928V0h2.928Z"/>
    <path d="M66.432 0v25h-2.928V0h2.928Z"/>
    <path d="M76.704 0v25h-2.928V0h2.928Z"/>
    <path d="M86.976 0v25h-2.928V0h2.928Z"/>
    <path d="M97.248 0v25h-2.928V0h2.928Z"/>
    <path d="M107.52 0v25h-2.928V0h2.928Z"/>
    <path d="M117.792 0v25h-2.928V0h2.928Z"/>
    <path d="M128.064 0v25h-2.928V0h2.928Z"/>
    <path d="M138.336 0v25h-2.928V0h2.928Z"/>
  </g>
</svg>